<svg width="10" height="12" viewBox="0 0 10 12" fill="none" xmlns="http://www.w3.org/2000/svg">
<path d="M3.22222 5.54545H6.77778V4.18182C6.77778 3.67992 6.60417 3.25142 6.25694 2.89631C5.90972 2.54119 5.49074 2.36364 5 2.36364C4.50926 2.36364 4.09028 2.54119 3.74306 2.89631C3.39583 3.25142 3.22222 3.67992 3.22222 4.18182V5.54545ZM9 6.22727V10.3182C9 10.5076 8.93519 10.6686 8.80556 10.8011C8.67593 10.9337 8.51852 11 8.33333 11H1.66667C1.48148 11 1.32407 10.9337 1.19444 10.8011C1.06481 10.6686 1 10.5076 1 10.3182V6.22727C1 6.03788 1.06481 5.87689 1.19444 5.74432C1.32407 5.61174 1.48148 5.54545 1.66667 5.54545H1.88889V4.18182C1.88889 3.31061 2.19444 2.5625 2.80556 1.9375C3.41667 1.3125 4.14815 1 5 1C5.85185 1 6.58333 1.3125 7.19444 1.9375C7.80556 2.5625 8.11111 3.31061 8.11111 4.18182V5.54545H8.33333C8.51852 5.54545 8.67593 5.61174 8.80556 5.74432C8.93519 5.87689 9 6.03788 9 6.22727Z" fill="#F7FBFF"/>
</svg>
