<svg width="110" height="39" viewBox="0 0 110 39" fill="none" xmlns="http://www.w3.org/2000/svg">
<g clip-path="url(#clip0_2320_1717)">
<path d="M16.6209 0.995605L0 10.4956V29.4956L16.6209 38.9956L33.2418 29.4956V10.4956L16.6209 0.995605ZM31.1465 11.3139L27.0971 18.2593L18.9982 4.3685L31.1465 11.3139ZM26.0897 19.9956L24.1557 23.3086L16.6007 18.9977L9.06594 23.3086L7.13187 19.9956L16.6007 3.72985L26.0897 19.9956ZM14.2234 4.3685L6.12454 18.2593L2.07509 11.3139L14.2234 4.3685ZM2.63919 28.9967L7.31319 26.3223L6.42674 24.8055L3.26374 26.6217L5.37912 23.0093L4.3718 21.2729L1.75275 25.7635V14.2477L14.2033 35.6227L2.63919 28.9967ZM9.95238 24.8254L16.6209 21.0135L23.2894 24.8254L16.6209 36.2614L9.95238 24.8254ZM31.4689 25.7635L28.8498 21.2729L27.8425 23.0093L29.9579 26.6217L26.7949 24.8055L25.9084 26.3223L30.5824 28.9967L18.9982 35.6227L31.4487 14.2477L31.4689 25.7635Z" fill="#269AEF"/>
<path d="M59.231 10.5354V14.6867L61.7896 12.152V10.5354H59.231Z" fill="#269AEF"/>
<path d="M86.1665 10.5354V14.6867L88.7251 12.152V10.5354H86.1665Z" fill="#269AEF"/>
<path d="M110 29.4755H106.797L100.632 21.8516L94.4671 29.4755H91.2638L106.414 10.5354H109.758L102.244 19.8159L110 29.4755ZM99.2217 16.0438L94.8096 10.5554H91.4653L97.5697 18.0995L99.2217 16.0438ZM75.2876 29.4755L83.729 10.5354H80.6869L73.958 25.903L67.3298 10.5354H64.2272L72.6887 29.4755H75.2876ZM36.6265 29.4755H39.6283L41.5221 25.2045L46.5788 13.8484H43.7583L36.6265 29.4755ZM59.2309 17.6205V29.4955H61.7895V15.0858L59.2309 17.6205ZM86.1668 17.6205V29.4955H88.7254V15.0858L86.1668 17.6205ZM45.0679 10.5354L46.599 13.8484L50.588 22.8495H45.4305L44.3627 25.2245H51.6356L53.5294 29.4955H56.5312L47.8884 10.5554H45.0679V10.5354Z" fill="white"/>
</g>
<defs>
<clipPath id="clip0_2320_1717">
<rect width="110" height="38" fill="white" transform="translate(0 0.995605)"/>
</clipPath>
</defs>
</svg>
