<svg width="14" height="14" viewBox="0 0 14 14" fill="none" xmlns="http://www.w3.org/2000/svg">
<path fill-rule="evenodd" clip-rule="evenodd" d="M3.37183 0.128113C3.45386 0.210205 3.5 0.321472 3.5 0.4375V0.875H10.5V0.4375C10.5 0.321472 10.5461 0.210205 10.6282 0.128113C10.676 0.0803223 10.7338 0.0447388 10.7965 0.0233154C10.8414 0.00799561 10.889 0 10.9375 0C11.0536 0 11.1648 0.0460815 11.2468 0.128113C11.3289 0.210205 11.375 0.321472 11.375 0.4375V0.875H12.25C12.7141 0.875 13.1593 1.05939 13.4874 1.38757C13.8157 1.71576 14 2.16089 14 2.625V3.5H0V2.625C0 2.16089 0.184326 1.71576 0.512573 1.38757C0.840698 1.05939 1.28589 0.875 1.75 0.875H2.625V0.4375C2.625 0.321472 2.67114 0.210205 2.75317 0.128113C2.80786 0.0734253 2.87549 0.034729 2.94885 0.0150146C2.9856 0.00512695 3.0238 0 3.0625 0C3.17859 0 3.28979 0.0460815 3.37183 0.128113ZM14 4.375V12.25C14 12.7141 13.8157 13.1592 13.4874 13.4874C13.1593 13.8156 12.7141 14 12.25 14H1.75C1.28589 14 0.840698 13.8156 0.512573 13.4874C0.184326 13.1592 0 12.7141 0 12.25V4.375H14ZM7.24341 11.669L11.7434 6.66901L10.2568 5.33105L6.46191 9.54761L4.20715 7.29291L2.79297 8.70715L5.79297 11.7072C5.98694 11.9011 6.25208 12.0069 6.52637 11.9997C6.80066 11.9924 7.05981 11.8729 7.24341 11.669Z" fill="#6530AB"/>
</svg>
